<svg xmlns="http://www.w3.org/2000/svg" width="30" height="30" viewBox="0 0 2048 2048" style="shape-rendering:geometricPrecision;text-rendering:geometricPrecision;image-rendering:optimizeQuality;fill-rule:evenodd;clip-rule:evenodd"> <defs><clipPath id="id0"><path d="M1024 0c565.539 0 1024 458.461 1024 1024s-458.461 1024-1024 1024S0 1589.539 0 1024 458.461 0 1024 0z"/></clipPath><style>.fil5{fill:#0277bd}.fil1{fill:#70a13b}</style></defs><g id="Layer_x0020_1"><path d="M1024 0c565.539 0 1024 458.461 1024 1024s-458.461 1024-1024 1024S0 1589.539 0 1024 458.461 0 1024 0z" style="fill:#9ccc65"/><g style="clip-path:url(#id0)"><g id="_461725136"><path id="_4613331441" class="fil1" d="m1584 1148.1 1135.88 1135.88-52.12-.23-1135.88-1135.88z"/><path id="_461330672" class="fil1" d="m1531.88 1147.87 1135.88 1135.88-105.73-.47L1426.15 1147.4z"/><path id="_461350952" class="fil1" d="m854.67 704.05 1135.88 1135.88v21.17L854.67 725.214z"/><path id="_461333480" class="fil1" d="m1426.15 1425.5 1135.88 1135.89v21.16L1426.15 1446.67z"/><path id="_461328296" class="fil1" d="m1426.15 1446.67 1135.88 1135.88h-21.17L1404.98 1446.67z"/><path id="_461348312" class="fil1" d="m1404.98 1446.67 1135.88 1135.88h-380.98L1024 1446.67z"/><path id="_461332880" class="fil1" d="M621.852 1147.4 1757.73 2283.28l-105.73.47L516.123 1147.87z"/><path id="_461340488" class="fil1" d="M643.019 1446.67 1778.9 2582.55h-21.17L621.852 1446.67z"/><path id="_461328320" class="fil1" d="M516.123 1147.87 1652 2283.75l-52.12.23L463.999 1148.1z"/><path id="_461355080" class="fil1" d="m1024 1446.67 1135.88 1135.88H1778.9L643.019 1446.67z"/><path id="_461360120" class="fil1" d="M854.67 725.214 1990.55 1861.1v41.44L854.67 766.653z"/><path id="_461336072" class="fil1" d="m1426.15 1147.4 1135.88 1135.88v278.11L1426.15 1425.5z"/><path id="_461732120" class="fil1" d="m1038.71 615.699 507.96 495.961 37.33 36.44-52.12-.23-105.73-.47V1446.67H621.852V1147.4l-105.729.47-52.124.23 37.325-36.44 184.037-179.695V704.05H854.67v62.603l154.6-150.954 14.72-14.367z"/></g></g><path d="M1024 0c565.539 0 1024 458.461 1024 1024s-458.461 1024-1024 1024S0 1589.539 0 1024 458.461 0 1024 0z" style="fill:none"/><path d="M685.361 947.143V704.049H854.67v77.783L685.36 947.145z" style="fill:#0277bd;fill-rule:nonzero"/><path style="fill:#29b6f6" d="m1038.71 615.7 507.96 495.96 37.33 36.44-52.12-.23-105.73-.47V1446.67H621.852V1147.4l-105.729.47-52.123.23 37.324-36.44L1009.28 615.7l14.71-14.368z"/><path class="fil5" d="M1040.25 1324.63v34.406h-33.899v-32.58a98.704 98.704 0 0 1-8.436-1.345c-6.011-1.224-11.899-2.944-17.559-5.25-5.38-2.193-10.556-4.94-15.171-8.409l-6.352-4.775 15.288-30.133 9.598 6.974c3.117 2.264 6.514 4.167 10.03 5.792 3.934 1.816 8.07 3.206 12.296 4.233 4.272 1.04 8.635 1.605 13.043 1.608 4.459.003 8.956-.63 13.116-2.22 3.506-1.34 6.728-3.233 9.41-5.803 2.595-2.486 4.533-5.34 5.923-8.601 1.457-3.416 2.115-7.002 2.115-10.69 0-4.578-.883-9.063-3.069-13.154-2.282-4.27-5.634-7.833-9.522-10.802-5.4-4.12-11.548-7.45-17.818-10.162-7.304-3.157-14.573-6.554-21.468-10.48-6.268-3.573-12.223-7.742-17.421-12.673-5.061-4.802-9.14-10.392-11.95-16.688-2.972-6.658-4.25-13.756-4.23-20.986.027-9.525 2.145-18.734 6.873-27.137 4.536-8.062 10.805-14.656 18.72-19.755 5.813-3.744 12.17-6.428 18.833-8.221v-33.887h33.899v32.21a83.19 83.19 0 0 1 8.13 1.398c4.921 1.109 9.787 2.607 14.385 4.64 3.881 1.714 7.655 3.742 11.103 6.178l6.697 4.73-14.364 28.333-9.083-4.715c-2.743-1.425-5.56-2.743-8.374-4.035-3.297-1.516-6.865-2.645-10.389-3.555-4.346-1.123-8.876-1.573-13.367-1.573-4.077 0-8.243.549-12.01 2.112-3.073 1.278-5.837 3.012-8.139 5.368-2.103 2.154-3.75 4.584-4.86 7.342-1.062 2.638-1.624 5.327-1.624 8.153 0 3.022.4 6.16 1.598 8.973 1.117 2.623 2.887 4.904 4.98 6.879 3.056 2.884 6.688 5.318 10.367 7.403 5.339 3.026 10.935 5.705 16.577 8.16 9.592 4.172 18.95 9.182 27.312 15.368 7.668 5.67 14.094 12.589 18.59 20.87 4.726 8.708 6.615 18.308 6.615 28.08a60.474 60.474 0 0 1-3.544 20.48c-2.39 6.67-5.975 12.747-10.621 18.19-4.831 5.658-10.682 10.23-17.279 13.85-4.72 2.59-9.747 4.52-14.949 5.899z"/><path class="fil5" d="m691.562 1055.03 317.468-317.47 14.96-14.965 14.97 14.965 317.47 317.47-29.92 29.93-302.52-302.507-302.499 302.507z"/></g></svg>